<svg xmlns="http://www.w3.org/2000/svg" viewBox="0 0 512 512"><rect width="512" height="512" rx="100" fill="#111"/><rect x="116" y="80" width="280" height="300" rx="60" fill="#ffb400"/><rect x="152" y="132" width="208" height="116" rx="16" fill="#111"/><path d="M180 380l-40 60m192-60 40 60M170 418h172" stroke="#ffb400" stroke-width="24"/><circle cx="182" cy="314" r="22" fill="#111"/><circle cx="330" cy="314" r="22" fill="#111"/><g transform="translate(296 118) rotate(20) scale(.82)"><path d="M-92 0C-74-78-14-138 66-122 108-112 132-80 128-38 108-72 74-84 48-70 62-42 76-20 92 0Z" fill="#d42a2a"/><path d="M-60-40C-30-80 10-100 50-98" stroke="#a51d1d" stroke-width="8" fill="none" stroke-linecap="round"/><rect x="-108" y="-20" width="216" height="40" rx="20" fill="#f5f2ea"/><circle cx="128" cy="-38" r="24" fill="#f5f2ea"/></g></svg>
